<?xml version="1.0" encoding="utf-8"?>
<!-- Generator: Adobe Illustrator 18.0.0, SVG Export Plug-In . SVG Version: 6.00 Build 0)  -->
<!DOCTYPE svg PUBLIC "-//W3C//DTD SVG 1.1//EN" "http://www.w3.org/Graphics/SVG/1.1/DTD/svg11.dtd">
<svg version="1.1" id="Capa_1" xmlns="http://www.w3.org/2000/svg" xmlns:xlink="http://www.w3.org/1999/xlink" x="0px" y="0px"
	 viewBox="0 0 462 123" enable-background="new 0 0 462 123" xml:space="preserve">
<g>
	<defs>
		<path id="SVGID_1_" d="M137.7,1.3c0,0-71.4,11.1-52.6,89.5C161.1,71.7,137.7,1.3,137.7,1.3"/>
	</defs>
	<clipPath id="SVGID_2_">
		<use xlink:href="#SVGID_1_"  overflow="visible"/>
	</clipPath>
	<g clip-path="url(#SVGID_2_)">
		<defs>
			<rect id="SVGID_3_" x="-261.4" y="-148.7" width="1226.9" height="6207.3"/>
		</defs>
		<clipPath id="SVGID_4_">
			<use xlink:href="#SVGID_3_"  overflow="visible"/>
		</clipPath>
		<rect x="62.8" y="-17.9" clip-path="url(#SVGID_4_)" fill="#6CAD6C" width="97.5" height="127.8"/>
	</g>
</g>
<g>
	<defs>
		<path id="SVGID_5_" d="M3.8,39.9c0,0-0.6,74.5,77.3,67.7C74.9,27.1,3.8,39.9,3.8,39.9"/>
	</defs>
	<clipPath id="SVGID_6_">
		<use xlink:href="#SVGID_5_"  overflow="visible"/>
	</clipPath>
	<g clip-path="url(#SVGID_6_)">
		<defs>
			<rect id="SVGID_7_" x="-261.4" y="-148.7" width="1226.9" height="6207.3"/>
		</defs>
		<clipPath id="SVGID_8_">
			<use xlink:href="#SVGID_7_"  overflow="visible"/>
		</clipPath>
		<rect x="-15.3" y="20" clip-path="url(#SVGID_8_)" fill="#6CAD6C" width="115.7" height="107.2"/>
	</g>
</g>
<g>
	<defs>
		<path id="SVGID_9_" d="M205.3,49.3c1.8,0,4,2.6,4,4.8c0,0.1,0,0.7-0.1,1.2c-3.9,13.6-10.5,20.5-16.7,26v20.3
			c0,12.3-6.1,16.6-11.9,16.6c-6.4,0-11-6-11-13.5c0-11.8,6.6-17.8,14.2-24.6V65.2c-2.7,4.7-6.3,8.1-11.2,8.1
			c-7.7,0-12.1-6.7-12.1-16.9c0-12.4,4.1-26.4,4.1-26.4c0.8-2,0-4.3,6.1-4.3c5.6,0,2.3,4.7,1.8,6.4c-2.1,8.7-3.3,13.8-3.3,23.7
			c0,6.3,1.9,9.7,5.3,9.7c4.6,0,8-7.6,9.4-15.8V30.9c0-2.2-0.5-2.9-0.5-3.7c0-1.2,1.4-2,3-2c3.8,0,6.2,2.3,6.2,5.2v41.1
			c4.1-4.7,7.8-10.5,10.1-18.6C203.2,50.4,204.1,49.3,205.3,49.3 M183.8,101.6V89c-3.7,3.9-6.2,8.3-6.2,15.3c0,3.6,1.1,6.4,3,6.4
			C184.2,110.8,183.8,103.8,183.8,101.6"/>
	</defs>
	<clipPath id="SVGID_10_">
		<use xlink:href="#SVGID_9_"  overflow="visible"/>
	</clipPath>
	<g clip-path="url(#SVGID_10_)">
		<defs>
			<rect id="SVGID_11_" x="-261.4" y="-148.7" width="1226.9" height="6207.3"/>
		</defs>
		<clipPath id="SVGID_12_">
			<use xlink:href="#SVGID_11_"  overflow="visible"/>
		</clipPath>
		<rect x="141.2" y="6" clip-path="url(#SVGID_12_)" fill="#FFFFFF" width="87.2" height="131.4"/>
	</g>
</g>
<g>
	<defs>
		<path id="SVGID_13_" d="M251.4,54c-1.4,6.3-6.1,11.6-13.9,11.6c-2.1,0-3.9-0.2-5.6-0.8c-2.9,5-7.2,8.4-13.7,8.4
			c-11.6,0-16.7-10.1-16.7-21.8c0-17.2,9.2-27.7,11.7-27.7c3,0,5.3,6.2,2.3,8.2c-1.8,2.8-5.3,7.1-5.3,18.7c0,9.8,3.8,14.8,8.2,14.8
			c3.2,0,5.3-1.8,6.8-4.5c-5.4-4.7-8.2-12.4-8.2-20.9c0-7.4,3.1-13.7,9.3-13.7c5.4,0,9.7,8.3,9.7,19.7c0,4.3-0.5,8.7-1.6,12.7
			c0.8,0.2,1.5,0.2,2.3,0.2c4.9,0,7.6-3.9,8.2-8.4C245.4,47.9,252.9,47.4,251.4,54 M227.4,53.4c0.2-1.9,0.3-3.6,0.3-5.4
			c0-8-0.3-13.8-2.7-13.8c-1.3,0-1.9,1.9-1.9,5.5C223,45,224.8,49.9,227.4,53.4"/>
	</defs>
	<clipPath id="SVGID_14_">
		<use xlink:href="#SVGID_13_"  overflow="visible"/>
	</clipPath>
	<g clip-path="url(#SVGID_14_)">
		<defs>
			<rect id="SVGID_15_" x="-261.4" y="-148.7" width="1226.9" height="6207.3"/>
		</defs>
		<clipPath id="SVGID_16_">
			<use xlink:href="#SVGID_15_"  overflow="visible"/>
		</clipPath>
		<rect x="182.3" y="4.6" clip-path="url(#SVGID_16_)" fill="#FFFFFF" width="88.5" height="87.8"/>
	</g>
</g>
<g>
	<defs>
		<path id="SVGID_17_" d="M296.9,73.2c-6.1,0-9.6-5-9.6-11V38.4c0-3.6-0.2-6.7-2.2-6.7c-3.1,0-9.6,10.1-10.3,19.3v17.1
			c0,2.2,0.1,5-3.2,5c-2.3,0-5.5-0.8-5.5-5.2V38.4c0-3.6-0.2-6.7-2.2-6.7c-3.1,0-9.6,10.1-10.3,19.3v17.1c0,2.2,0.1,5-3.2,5
			c-2.3,0-5.5-0.8-5.5-5.2V30.9c0-2.2-0.5-2.9-0.5-3.7c0-1.2,1.4-2,3-2c3.8,0,6.2,2.3,6.2,5.2v4.9c3-6.3,7-11.2,12.1-11.2
			c6.9,0,8.8,5.7,9,11c2.9-6.2,6.9-11,12-11c7.4,0,9.2,6.4,9.2,11.8v24.3c0,1.1,0,5.4,3,5.4c4.6,0,6.6-7.5,7.7-12.7
			c0.5-2.5,1.6-3.5,2.7-3.5c1.8,0,4,2.6,4,4.8c0,0.1,0,0.4-0.1,0.8C311.2,62.7,306.8,73.2,296.9,73.2"/>
	</defs>
	<clipPath id="SVGID_18_">
		<use xlink:href="#SVGID_17_"  overflow="visible"/>
	</clipPath>
	<g clip-path="url(#SVGID_18_)">
		<defs>
			<rect id="SVGID_19_" x="-261.4" y="-148.7" width="1226.9" height="6207.3"/>
		</defs>
		<clipPath id="SVGID_20_">
			<use xlink:href="#SVGID_19_"  overflow="visible"/>
		</clipPath>
		<rect x="225.3" y="4.8" clip-path="url(#SVGID_20_)" fill="#FFFFFF" width="107.3" height="87.6"/>
	</g>
</g>
<g>
	<defs>
		<path id="SVGID_21_" d="M316.5,58.2c1.6,4,4.7,7.3,10.7,7.3c8.9,0,12.6-7.6,14-14.8c1-5.3,7.4-2.9,7,1.2
			c-0.8,7.1-5.4,21.3-22.2,21.3c-10.4,0-20.3-8.6-20.3-23.2c0-14.9,8.7-26,17.5-26c6.4,0,10.3,4.8,10.3,11.8
			C333.5,44.5,327.6,54.8,316.5,58.2 M315.1,51.8c5.7-2.7,9.4-8.8,9.4-15.8c0-2.6-0.9-4.1-2.4-4.1c-5.6,0-7.3,12.9-7.1,17.8
			C315,50.4,315.1,51.1,315.1,51.8"/>
	</defs>
	<clipPath id="SVGID_22_">
		<use xlink:href="#SVGID_21_"  overflow="visible"/>
	</clipPath>
	<g clip-path="url(#SVGID_22_)">
		<defs>
			<rect id="SVGID_23_" x="-261.4" y="-148.7" width="1226.9" height="6207.3"/>
		</defs>
		<clipPath id="SVGID_24_">
			<use xlink:href="#SVGID_23_"  overflow="visible"/>
		</clipPath>
		<rect x="286.5" y="4.8" clip-path="url(#SVGID_24_)" fill="#FFFFFF" width="80.9" height="87.6"/>
	</g>
</g>
<g>
	<defs>
		<path id="SVGID_25_" d="M354.3,59.9c0-7.5,2.1-15.8,5.7-25.9h-8.7h-1.3c-0.1,4.6-0.8,14.8-2.9,21.6c-1.5,4.9-7.4,0.7-6.4-3.3
			c1.3-4.7,1.7-14.4,1.8-20.4c-2.9-1.6-4.9-4.1-4.9-7.5c0-3.3,2.7-5.4,5.7-5.4c2.7,0,6,1.4,7.2,6.2c3.8,0.5,4.9,0.5,6.1,0.5h6
			c1.4,0,6,3.9,5.5,6.6c0,1.4-5.2,15.2-5.2,26.9c0,3.3,1.5,6.3,4.6,6.3c5.3,0,7.2-7.5,8.2-12.7c0.5-2.5,1.6-3.5,2.7-3.5
			c1.8,0,4,2.6,4,4.8c0,0.4-0.1,0.6-0.1,0.8c-2.1,7.7-6.5,18.3-16.4,18.3C360.7,73.2,354.3,70.2,354.3,59.9"/>
	</defs>
	<clipPath id="SVGID_26_">
		<use xlink:href="#SVGID_25_"  overflow="visible"/>
	</clipPath>
	<g clip-path="url(#SVGID_26_)">
		<defs>
			<rect id="SVGID_27_" x="-261.4" y="-148.7" width="1226.9" height="6207.3"/>
		</defs>
		<clipPath id="SVGID_28_">
			<use xlink:href="#SVGID_27_"  overflow="visible"/>
		</clipPath>
		<rect x="318.5" y="-0.2" clip-path="url(#SVGID_28_)" fill="#FFFFFF" width="83.2" height="92.6"/>
	</g>
</g>
<g>
	<defs>
		<path id="SVGID_29_" d="M374.8,51.1c0-13.5,7.8-27.1,18.7-27.1c7.9,0,10.9,7.4,10.9,11.5c0,4.5-7.9,6.8-7.2,2.7
			c-0.6-2-0.8-6.3-4.7-6.3c-4.2,0-8.2,8.7-8.2,19.2c0,9.3,4.9,14.4,11.7,14.4c8.9,0,13.1-7.6,14.4-14.8c1-5.3,7.4-2.9,7,1.2
			c-0.8,7.1-5.8,21.3-22.7,21.3C384.4,73.2,374.8,65.5,374.8,51.1"/>
	</defs>
	<clipPath id="SVGID_30_">
		<use xlink:href="#SVGID_29_"  overflow="visible"/>
	</clipPath>
	<g clip-path="url(#SVGID_30_)">
		<defs>
			<rect id="SVGID_31_" x="-261.4" y="-148.7" width="1226.9" height="6207.3"/>
		</defs>
		<clipPath id="SVGID_32_">
			<use xlink:href="#SVGID_31_"  overflow="visible"/>
		</clipPath>
		<rect x="355.6" y="4.8" clip-path="url(#SVGID_32_)" fill="#FFFFFF" width="80.9" height="87.6"/>
	</g>
</g>
<g>
	<defs>
		<path id="SVGID_33_" d="M458.8,54c-1.4,6.3-6.1,11.6-13.9,11.6c-2.1,0-3.9-0.2-5.6-0.8c-2.9,5-7.2,8.4-13.7,8.4
			c-11.6,0-16.7-10.1-16.7-21.8c0-17.2,9.2-27.7,11.7-27.7c3,0,5.3,6.2,2.3,8.2c-1.8,2.8-5.3,7.1-5.3,18.7c0,9.8,3.8,14.8,8.2,14.8
			c3.2,0,5.3-1.8,6.8-4.5c-5.4-4.7-8.2-12.4-8.2-20.9c0-7.4,3.1-13.7,9.3-13.7c5.4,0,9.7,8.3,9.7,19.7c0,4.3-0.5,8.7-1.6,12.7
			c0.8,0.2,1.5,0.2,2.3,0.2c4.9,0,7.6-3.9,8.2-8.4C452.7,47.9,460.2,47.4,458.8,54 M434.7,53.4c0.2-1.9,0.3-3.6,0.3-5.4
			c0-8-0.3-13.8-2.7-13.8c-1.3,0-1.9,1.9-1.9,5.5C430.4,45,432.1,49.9,434.7,53.4"/>
	</defs>
	<clipPath id="SVGID_34_">
		<use xlink:href="#SVGID_33_"  overflow="visible"/>
	</clipPath>
	<g clip-path="url(#SVGID_34_)">
		<defs>
			<rect id="SVGID_35_" x="-261.4" y="-148.7" width="1226.9" height="6207.3"/>
		</defs>
		<clipPath id="SVGID_36_">
			<use xlink:href="#SVGID_35_"  overflow="visible"/>
		</clipPath>
		<rect x="389.6" y="4.6" clip-path="url(#SVGID_36_)" fill="#FFFFFF" width="88.5" height="87.8"/>
	</g>
</g>
</svg>
