<?xml version="1.0" encoding="utf-8"?>
<!-- Generator: Adobe Illustrator 18.0.0, SVG Export Plug-In . SVG Version: 6.00 Build 0)  -->
<!DOCTYPE svg PUBLIC "-//W3C//DTD SVG 1.1//EN" "http://www.w3.org/Graphics/SVG/1.1/DTD/svg11.dtd">
<svg version="1.1" id="Capa_1" xmlns="http://www.w3.org/2000/svg" xmlns:xlink="http://www.w3.org/1999/xlink" x="0px" y="0px"
	 viewBox="0 0 381 232" enable-background="new 0 0 381 232" xml:space="preserve">
<g>
	<g>
		<defs>
			<rect id="SVGID_1_" x="54.1" y="86.4" width="152" height="131.4"/>
		</defs>
		<clipPath id="SVGID_2_">
			<use xlink:href="#SVGID_1_"  overflow="visible"/>
		</clipPath>
		<g clip-path="url(#SVGID_2_)">
			<defs>
				<rect id="SVGID_3_" x="-439.5" y="-5439" width="1260.7" height="6378.1"/>
			</defs>
			<clipPath id="SVGID_4_">
				<use xlink:href="#SVGID_3_"  overflow="visible"/>
			</clipPath>
			<g clip-path="url(#SVGID_4_)" enable-background="new    ">
				<g>
					<defs>
						<rect id="SVGID_5_" x="49" y="64.6" width="157.6" height="165.5"/>
					</defs>
					<clipPath id="SVGID_6_">
						<use xlink:href="#SVGID_5_"  overflow="visible"/>
					</clipPath>
					<g clip-path="url(#SVGID_6_)">
						<defs>
							<path id="SVGID_7_" d="M54.1,87.9c0,0-1.2,142.1,152,129.2C193.8,63.4,54.1,87.9,54.1,87.9"/>
						</defs>
						<clipPath id="SVGID_8_">
							<use xlink:href="#SVGID_7_"  overflow="visible"/>
						</clipPath>
						<g clip-path="url(#SVGID_8_)">
							<defs>
								<rect id="SVGID_9_" x="52.9" y="84.3" width="153.6" height="133.9"/>
							</defs>
							<clipPath id="SVGID_10_">
								<use xlink:href="#SVGID_9_"  overflow="visible"/>
							</clipPath>
							<rect x="34.4" y="66.7" clip-path="url(#SVGID_10_)" fill="#B5E2B5" width="191.4" height="170.8"/>
						</g>
					</g>
				</g>
			</g>
		</g>
	</g>
	<g>
		<defs>
			<rect id="SVGID_11_" x="207.6" y="14.1" width="116.3" height="170.8"/>
		</defs>
		<clipPath id="SVGID_12_">
			<use xlink:href="#SVGID_11_"  overflow="visible"/>
		</clipPath>
		<g clip-path="url(#SVGID_12_)">
			<defs>
				<rect id="SVGID_13_" x="-439.5" y="-5439" width="1260.7" height="6378.1"/>
			</defs>
			<clipPath id="SVGID_14_">
				<use xlink:href="#SVGID_13_"  overflow="visible"/>
			</clipPath>
			<g clip-path="url(#SVGID_14_)" enable-background="new    ">
				<g>
					<defs>
						<rect id="SVGID_15_" x="186.9" y="13.3" width="157.6" height="173.3"/>
					</defs>
					<clipPath id="SVGID_16_">
						<use xlink:href="#SVGID_15_"  overflow="visible"/>
					</clipPath>
					<g clip-path="url(#SVGID_16_)">
						<defs>
							<path id="SVGID_17_" d="M317.2,14.1c0,0-140.2,21.1-103.4,170.8C363.2,148.5,317.2,14.1,317.2,14.1"/>
						</defs>
						<clipPath id="SVGID_18_">
							<use xlink:href="#SVGID_17_"  overflow="visible"/>
						</clipPath>
						<g clip-path="url(#SVGID_18_)">
							<defs>
								<rect id="SVGID_19_" x="206.6" y="13.3" width="118.2" height="173.3"/>
							</defs>
							<clipPath id="SVGID_20_">
								<use xlink:href="#SVGID_19_"  overflow="visible"/>
							</clipPath>
							<rect x="187.9" y="-5.6" clip-path="url(#SVGID_20_)" fill="#B5E2B5" width="155.6" height="210.2"/>
						</g>
					</g>
				</g>
			</g>
		</g>
	</g>
	<g>
		<defs>
			<path id="SVGID_21_" d="M66.7,136.4c2.2,0,4.8,3,4.8,5.6c0,0.1,0,0.8-0.1,1.4c-4.6,15.8-12.5,23.8-19.8,30.2v23.5
				c0,14.3-7.2,19.3-14.1,19.3c-7.6,0-13-6.9-13-15.7c0-13.7,7.9-20.7,16.8-28.6v-17.3c-3.3,5.4-7.5,9.4-13.3,9.4
				c-9.1,0-14.4-7.8-14.4-19.6c0-14.4,4.9-30.6,4.9-30.6c1-2.3,0-5,7.2-5c6.7,0,2.7,5.4,2.2,7.5c-2.4,10.1-3.9,16.1-3.9,27.5
				c0,7.3,2.3,11.3,6.2,11.3c5.4,0,9.5-8.8,11.1-18.4v-21.9c0-2.6-0.5-3.4-0.5-4.4c0-1.4,1.6-2.3,3.5-2.3c4.5,0,7.3,2.7,7.3,6v47.8
				c4.9-5.4,9.2-12.2,11.9-21.6C64.3,137.7,65.4,136.4,66.7,136.4 M41.2,197.1v-14.6c-4.3,4.5-7.3,9.7-7.3,17.8
				c0,4.2,1.4,7.5,3.5,7.5C41.8,207.9,41.2,199.7,41.2,197.1"/>
		</defs>
		<clipPath id="SVGID_22_">
			<use xlink:href="#SVGID_21_"  overflow="visible"/>
		</clipPath>
		<g clip-path="url(#SVGID_22_)">
			<defs>
				<rect id="SVGID_23_" x="-439.5" y="-5439" width="1260.7" height="6378.1"/>
			</defs>
			<clipPath id="SVGID_24_">
				<use xlink:href="#SVGID_23_"  overflow="visible"/>
			</clipPath>
			<rect x="-6.2" y="88.7" clip-path="url(#SVGID_24_)" fill="#409640" width="97.4" height="147.5"/>
		</g>
	</g>
	<g>
		<defs>
			<path id="SVGID_25_" d="M121.5,141.9c-1.6,7.3-7.2,13.5-16.4,13.5c-2.4,0-4.6-0.3-6.7-1c-3.4,5.9-8.6,9.8-16.3,9.8
				c-13.7,0-19.8-11.7-19.8-25.3c0-20,10.9-32.1,13.9-32.1c3.5,0,6.2,7.2,2.7,9.5c-2.2,3.3-6.2,8.3-6.2,21.8
				c0,11.4,4.5,17.1,9.8,17.1c3.8,0,6.2-2,8-5.2c-6.4-5.4-9.8-14.4-9.8-24.2c0-8.6,3.7-15.9,11-15.9c6.4,0,11.5,9.7,11.5,22.9
				c0,5-0.5,10.1-1.9,14.7c1,0.3,1.8,0.3,2.7,0.3c5.8,0,9-4.5,9.8-9.8C114.3,134.8,123.2,134.3,121.5,141.9 M93,141.2
				c0.3-2.2,0.4-4.2,0.4-6.3c0-9.3-0.4-16.1-3.3-16.1c-1.5,0-2.3,2.2-2.3,6.4C87.8,131.4,89.8,137.1,93,141.2"/>
		</defs>
		<clipPath id="SVGID_26_">
			<use xlink:href="#SVGID_25_"  overflow="visible"/>
		</clipPath>
		<g clip-path="url(#SVGID_26_)">
			<defs>
				<rect id="SVGID_27_" x="-439.5" y="-5439" width="1260.7" height="6378.1"/>
			</defs>
			<clipPath id="SVGID_28_">
				<use xlink:href="#SVGID_27_"  overflow="visible"/>
			</clipPath>
			<rect x="42.6" y="87.1" clip-path="url(#SVGID_28_)" fill="#409640" width="98.8" height="96.8"/>
		</g>
	</g>
	<g>
		<defs>
			<path id="SVGID_29_" d="M175.4,164.2c-7.2,0-11.4-5.9-11.4-12.8v-27.6c0-4.2-0.3-7.8-2.6-7.8c-3.7,0-11.4,11.7-12.2,22.5v19.9
				c0,2.6,0.1,5.9-3.8,5.9c-2.7,0-6.5-1-6.5-6v-34.4c0-4.2-0.3-7.8-2.6-7.8c-3.7,0-11.4,11.7-12.2,22.5v19.9c0,2.6,0.1,5.9-3.8,5.9
				c-2.7,0-6.5-1-6.5-6v-43.1c0-2.6-0.5-3.4-0.5-4.4c0-1.4,1.6-2.3,3.5-2.3c4.5,0,7.3,2.7,7.3,6v5.7c3.5-7.3,8.3-13.1,14.4-13.1
				c8.1,0,10.5,6.7,10.7,12.8c3.4-7.2,8.1-12.8,14.3-12.8c8.8,0,10.9,7.5,10.9,13.7V149c0,1.2,0,6.3,3.5,6.3c5.4,0,7.9-8.7,9.1-14.7
				c0.5-2.9,1.9-4.1,3.3-4.1c2.2,0,4.8,3,4.8,5.6c0,0.1,0,0.4-0.1,1C192.4,152,187.1,164.2,175.4,164.2"/>
		</defs>
		<clipPath id="SVGID_30_">
			<use xlink:href="#SVGID_29_"  overflow="visible"/>
		</clipPath>
		<g clip-path="url(#SVGID_30_)">
			<defs>
				<rect id="SVGID_31_" x="-439.5" y="-5439" width="1260.7" height="6378.1"/>
			</defs>
			<clipPath id="SVGID_32_">
				<use xlink:href="#SVGID_31_"  overflow="visible"/>
			</clipPath>
			<rect x="93.5" y="87.3" clip-path="url(#SVGID_32_)" fill="#409640" width="121.1" height="96.6"/>
		</g>
	</g>
	<g>
		<defs>
			<path id="SVGID_33_" d="M198.6,146.8c1.9,4.6,5.6,8.4,12.6,8.4c10.6,0,14.9-8.8,16.6-17.1c1.2-6.1,8.8-3.4,8.3,1.4
				c-1,8.3-6.4,24.8-26.3,24.8c-12.4,0-24-9.9-24-26.9c0-17.3,10.3-30.2,20.8-30.2c7.6,0,12.2,5.6,12.2,13.7
				C218.7,130.9,211.8,142.8,198.6,146.8 M197,139.3c6.8-3.1,11.1-10.2,11.1-18.4c0-3-1.1-4.8-2.9-4.8c-6.7,0-8.7,15-8.4,20.7
				C196.8,137.7,197,138.5,197,139.3"/>
		</defs>
		<clipPath id="SVGID_34_">
			<use xlink:href="#SVGID_33_"  overflow="visible"/>
		</clipPath>
		<g clip-path="url(#SVGID_34_)">
			<defs>
				<rect id="SVGID_35_" x="-439.5" y="-5439" width="1260.7" height="6378.1"/>
			</defs>
			<clipPath id="SVGID_36_">
				<use xlink:href="#SVGID_35_"  overflow="visible"/>
			</clipPath>
			<rect x="166" y="87.3" clip-path="url(#SVGID_36_)" fill="#409640" width="89.8" height="96.6"/>
		</g>
	</g>
	<g>
		<defs>
			<path id="SVGID_37_" d="M243.4,148.7c0-8.7,2.4-18.4,6.8-30.1h-10.3h-1.5c-0.1,5.3-1,17.1-3.4,25c-1.8,5.7-8.8,0.8-7.6-3.8
				c1.5-5.4,2-16.7,2.2-23.7c-3.4-1.9-5.8-4.8-5.8-8.7c0-3.8,3.3-6.3,6.8-6.3c3.3,0,7.1,1.6,8.6,7.2c4.5,0.5,5.8,0.5,7.2,0.5h7.1
				c1.6,0,7.1,4.5,6.5,7.6c0,1.6-6.1,17.7-6.1,31.3c0,3.8,1.8,7.3,5.4,7.3c6.2,0,8.6-8.7,9.8-14.7c0.5-2.9,1.9-4.1,3.3-4.1
				c2.2,0,4.8,3,4.8,5.6c0,0.4-0.1,0.7-0.1,1c-2.4,9-7.7,21.2-19.4,21.2C251,164.2,243.4,160.7,243.4,148.7"/>
		</defs>
		<clipPath id="SVGID_38_">
			<use xlink:href="#SVGID_37_"  overflow="visible"/>
		</clipPath>
		<g clip-path="url(#SVGID_38_)">
			<defs>
				<rect id="SVGID_39_" x="-439.5" y="-5439" width="1260.7" height="6378.1"/>
			</defs>
			<clipPath id="SVGID_40_">
				<use xlink:href="#SVGID_39_"  overflow="visible"/>
			</clipPath>
			<rect x="204" y="81.5" clip-path="url(#SVGID_40_)" fill="#409640" width="92.6" height="102.4"/>
		</g>
	</g>
	<g>
		<defs>
			<path id="SVGID_41_" d="M267.7,138.5c0-15.7,9.2-31.4,22.1-31.4c9.4,0,12.9,8.6,12.9,13.3c0,5.2-9.4,7.9-8.6,3.1
				c-0.7-2.3-1-7.3-5.6-7.3c-5,0-9.8,10.1-9.8,22.3c0,10.8,5.8,16.7,13.9,16.7c10.6,0,15.5-8.8,17.1-17.1c1.2-6.1,8.8-3.4,8.3,1.4
				c-1,8.3-6.9,24.8-26.9,24.8C279.1,164.2,267.7,155.2,267.7,138.5"/>
		</defs>
		<clipPath id="SVGID_42_">
			<use xlink:href="#SVGID_41_"  overflow="visible"/>
		</clipPath>
		<g clip-path="url(#SVGID_42_)">
			<defs>
				<rect id="SVGID_43_" x="-439.5" y="-5439" width="1260.7" height="6378.1"/>
			</defs>
			<clipPath id="SVGID_44_">
				<use xlink:href="#SVGID_43_"  overflow="visible"/>
			</clipPath>
			<rect x="248" y="87.3" clip-path="url(#SVGID_44_)" fill="#409640" width="89.8" height="96.6"/>
		</g>
	</g>
	<g>
		<defs>
			<rect id="SVGID_45_" x="308" y="106.8" width="59.4" height="57.4"/>
		</defs>
		<clipPath id="SVGID_46_">
			<use xlink:href="#SVGID_45_"  overflow="visible"/>
		</clipPath>
		<g clip-path="url(#SVGID_46_)">
			<defs>
				<rect id="SVGID_47_" x="-439.5" y="-5439" width="1260.7" height="6378.1"/>
			</defs>
			<clipPath id="SVGID_48_">
				<use xlink:href="#SVGID_47_"  overflow="visible"/>
			</clipPath>
			<g clip-path="url(#SVGID_48_)" enable-background="new    ">
				<g>
					<defs>
						<rect id="SVGID_49_" x="305" y="103.9" width="67" height="63"/>
					</defs>
					<clipPath id="SVGID_50_">
						<use xlink:href="#SVGID_49_"  overflow="visible"/>
					</clipPath>
					<g clip-path="url(#SVGID_50_)">
						<defs>
							<path id="SVGID_51_" d="M367.3,141.9c-1.6,7.3-7.2,13.5-16.4,13.5c-2.4,0-4.6-0.3-6.7-1c-3.4,5.9-8.6,9.8-16.3,9.8
								c-13.7,0-19.8-11.7-19.8-25.3c0-20,10.9-32.1,13.9-32.1c3.5,0,6.2,7.2,2.7,9.5c-2.2,3.3-6.2,8.3-6.2,21.8
								c0,11.4,4.5,17.1,9.8,17.1c3.8,0,6.2-2,8-5.2c-6.4-5.4-9.8-14.4-9.8-24.2c0-8.6,3.7-15.9,11-15.9c6.4,0,11.5,9.7,11.5,22.9
								c0,5-0.5,10.1-1.9,14.7c1,0.3,1.8,0.3,2.7,0.3c5.8,0,9-4.5,9.8-9.8C360.1,134.8,369,134.3,367.3,141.9 M338.7,141.2
								c0.3-2.2,0.4-4.2,0.4-6.3c0-9.3-0.4-16.1-3.3-16.1c-1.5,0-2.3,2.2-2.3,6.4C333.6,131.4,335.6,137.1,338.7,141.2"/>
						</defs>
						<clipPath id="SVGID_52_">
							<use xlink:href="#SVGID_51_"  overflow="visible"/>
						</clipPath>
						<g clip-path="url(#SVGID_52_)">
							<defs>
								<rect id="SVGID_53_" x="305" y="103.9" width="63" height="63"/>
							</defs>
							<clipPath id="SVGID_54_">
								<use xlink:href="#SVGID_53_"  overflow="visible"/>
							</clipPath>
							<rect x="288.4" y="87.1" clip-path="url(#SVGID_54_)" fill="#409640" width="98.8" height="96.8"/>
						</g>
					</g>
				</g>
			</g>
		</g>
	</g>
</g>
</svg>
