<?xml version="1.0" encoding="utf-8"?>
<!-- Generator: Adobe Illustrator 18.0.0, SVG Export Plug-In . SVG Version: 6.00 Build 0)  -->
<!DOCTYPE svg PUBLIC "-//W3C//DTD SVG 1.1//EN" "http://www.w3.org/Graphics/SVG/1.1/DTD/svg11.dtd">
<svg version="1.1" id="Capa_1" xmlns="http://www.w3.org/2000/svg" xmlns:xlink="http://www.w3.org/1999/xlink" x="0px" y="0px"
	 viewBox="0 0 600 600" enable-background="new 0 0 600 600" xml:space="preserve">
<rect x="34.8" y="378.1" fill="#D6CCB0" width="533" height="209"/>
<rect x="34.8" y="567.9" fill="#A0926A" width="533" height="19.1"/>
<g>
	<rect x="56.2" y="162" fill="#A0926A" width="21.6" height="216.1"/>
	<rect x="524.7" y="162" fill="#A0926A" width="21.6" height="216.1"/>
</g>
<g>
	<rect x="56.2" y="361.9" fill="#918159" width="21.6" height="16.2"/>
	<rect x="524.7" y="361.9" fill="#918159" width="21.6" height="16.2"/>
</g>
<g>
	<circle fill="#076A9B" cx="44.1" cy="166.7" r="37.1"/>
	<circle fill="#076A9B" cx="117.6" cy="166.7" r="37.1"/>
	<circle fill="#076A9B" cx="191.1" cy="166.7" r="37.1"/>
	<circle fill="#076A9B" cx="264.5" cy="166.7" r="37.1"/>
	<circle fill="#076A9B" cx="338" cy="166.7" r="37.1"/>
	<circle fill="#076A9B" cx="411.5" cy="166.7" r="37.1"/>
	<circle fill="#076A9B" cx="484.9" cy="166.7" r="37.1"/>
	<circle fill="#076A9B" cx="558.4" cy="166.7" r="37.1"/>
</g>
<polygon fill="#0074B8" points="595.5,162.4 7.1,162.4 44.2,13.7 558.4,13.7 "/>
<g>
	<g>
		<path fill="#4B9B3B" d="M333.8,453.1c0,0,22.1-19.9,42,0C375.8,453.1,354.2,473.6,333.8,453.1z"/>
		<path fill="#4B9B3B" d="M334.8,452.7c0,0-8.4-28.6,18.2-37.9C353,414.8,362.1,443.1,334.8,452.7z"/>
		<path fill="#E28830" d="M337.4,454.8L337.4,454.8c15.6,21.7,4.8,52.3-20.9,59.4l-62.8,17.4c-12.9,3.6-23.3-10.9-15.8-22l36.5-53.9
			C289.4,433.6,321.8,433.1,337.4,454.8z"/>
	</g>
</g>
<g>
	<g>
		<path fill="#C2DD50" d="M101.3,333c15.4-5.8,45.3-11,55.1,29.4c1.5,6.2-1.9,12.5-7.9,14.5c-15.6,5.3-45.2,9.5-54.8-29.5
			C92.2,341.3,95.5,335.1,101.3,333z"/>
		<path fill="#C2DD50" d="M159.7,333c15.4-5.8,45.3-11,55.1,29.4c1.5,6.2-1.9,12.5-7.9,14.5c-15.6,5.3-45.2,9.5-54.8-29.5
			C150.6,341.3,153.8,335.1,159.7,333z"/>
		<path fill="#C2DD50" d="M218.7,333c15.4-5.8,45.3-11,55.1,29.4c1.5,6.2-1.9,12.5-7.9,14.5c-15.6,5.3-45.2,9.5-54.8-29.5
			C209.7,341.3,212.9,335.1,218.7,333z"/>
		<path fill="#C2DD50" d="M175.6,288.2c15.4-5.8,45.3-11,55.1,29.4c1.5,6.2-1.9,12.5-7.9,14.5c-15.6,5.3-45.2,9.5-54.8-29.5
			C166.5,296.6,169.8,290.4,175.6,288.2z"/>
		<path fill="#C2DD50" d="M116.5,288.2c15.4-5.8,45.3-11,55.1,29.4c1.5,6.2-1.9,12.5-7.9,14.5c-15.6,5.3-45.2,9.5-54.8-29.5
			C107.4,296.6,110.7,290.4,116.5,288.2z"/>
		<path fill="#C2DD50" d="M137.3,244c15.4-5.8,45.3-11,55.1,29.4c1.5,6.2-1.9,12.5-7.9,14.5c-15.6,5.3-45.2,9.5-54.8-29.5
			C128.3,252.4,131.5,246.2,137.3,244z"/>
	</g>
	<g>
		<path fill="#64296D" d="M335,276.4V243h-17v33.4c-9,3.4-15,11.8-15,21.5v55c0,12.8,10.7,23.2,23.5,23.2
			c12.8,0,23.5-10.5,23.5-23.2v-55C350,288.2,344,279.9,335,276.4z"/>
		<path fill="#64296D" d="M385,276.4V243h-17v33.4c-9,3.4-15,11.8-15,21.5v55c0,12.8,10.7,23.2,23.5,23.2
			c12.8,0,23.5-10.5,23.5-23.2v-55C400,288.2,394,279.9,385,276.4z"/>
		<path fill="#64296D" d="M437,276.4V243h-17v33.4c-9,3.4-16,11.8-16,21.5v55c0,12.8,11.2,23.2,24,23.2c12.8,0,24-10.5,24-23.2v-55
			C452,288.2,445,279.9,437,276.4z"/>
		<path fill="#64296D" d="M491,276.4V243h-17v33.4c-9,3.4-16,11.8-16,21.5v55c0,12.8,11.2,23.2,24,23.2c12.8,0,24-10.5,24-23.2v-55
			C506,288.2,499,279.9,491,276.4z"/>
		<rect x="297.4" y="345.7" fill="#F4E8C1" width="211.8" height="32.4"/>
		<rect x="297.4" y="288.6" fill="#F4E8C1" width="211.8" height="32.4"/>
		<rect x="297.4" y="317.2" fill="#E2D5B0" width="211.8" height="32.4"/>
	</g>
</g>
</svg>
