<?xml version="1.0" encoding="utf-8"?>
<!-- Generator: Adobe Illustrator 18.0.0, SVG Export Plug-In . SVG Version: 6.00 Build 0)  -->
<!DOCTYPE svg PUBLIC "-//W3C//DTD SVG 1.1//EN" "http://www.w3.org/Graphics/SVG/1.1/DTD/svg11.dtd">
<svg version="1.1" id="Capa_1" xmlns="http://www.w3.org/2000/svg" xmlns:xlink="http://www.w3.org/1999/xlink" x="0px" y="0px"
	 viewBox="0 0 600 600" enable-background="new 0 0 600 600" xml:space="preserve">
<g>
	<g>
		<path fill="#C2DD50" d="M104.1,332.6c15.3-5.7,44.7-10.8,54.5,29.1c1.5,6.1-1.9,12.3-7.8,14.3c-15.4,5.2-44.6,9.4-54.2-29.1
			C95.1,340.9,98.3,334.8,104.1,332.6z"/>
		<path fill="#C2DD50" d="M161.8,332.6c15.3-5.7,44.7-10.8,54.5,29.1c1.5,6.1-1.9,12.3-7.8,14.3c-15.4,5.2-44.6,9.4-54.2-29.1
			C152.8,340.9,156,334.8,161.8,332.6z"/>
		<path fill="#C2DD50" d="M220.2,332.6c15.3-5.7,44.7-10.8,54.5,29.1c1.5,6.1-1.9,12.3-7.8,14.3c-15.4,5.2-44.6,9.4-54.2-29.1
			C211.2,340.9,214.4,334.8,220.2,332.6z"/>
		<path fill="#C2DD50" d="M177.5,288.4c15.3-5.7,44.7-10.8,54.5,29.1c1.5,6.1-1.9,12.3-7.8,14.3c-15.4,5.2-44.6,9.4-54.2-29.1
			C168.5,296.7,171.7,290.5,177.5,288.4z"/>
		<path fill="#C2DD50" d="M119.1,288.4c15.3-5.7,44.7-10.8,54.5,29.1c1.5,6.1-1.9,12.3-7.8,14.3c-15.4,5.2-44.6,9.4-54.2-29.1
			C110.1,296.7,113.3,290.5,119.1,288.4z"/>
		<path fill="#C2DD50" d="M139.7,244.7c15.3-5.7,44.7-10.8,54.5,29.1c1.5,6.1-1.9,12.3-7.8,14.3c-15.4,5.2-44.6,9.4-54.2-29.1
			C130.7,253,133.9,246.8,139.7,244.7z"/>
	</g>
	<g>
		<path fill="#64296D" d="M335,276.7V244h-17v32.7c-9,3.4-15,11.7-15,21.3v54.4c0,12.6,10.9,23,23.5,23c12.6,0,23.5-10.3,23.5-23
			V298C350,288.4,343,280.1,335,276.7z"/>
		<path fill="#64296D" d="M384,276.7V244h-17v32.7c-9,3.4-15,11.7-15,21.3v54.4c0,12.6,10.9,23,23.5,23c12.6,0,23.5-10.3,23.5-23
			V298C399,288.4,392,280.1,384,276.7z"/>
		<path fill="#64296D" d="M435,276.7V244h-17v32.7c-9,3.4-15,11.7-15,21.3v54.4c0,12.6,10.9,23,23.5,23c12.6,0,23.5-10.3,23.5-23
			V298C450,288.4,444,280.1,435,276.7z"/>
		<path fill="#64296D" d="M488,276.7V244h-17v32.7c-8,3.4-15,11.7-15,21.3v54.4c0,12.6,10.9,23,23.5,23c12.6,0,23.5-10.3,23.5-23
			V298C503,288.4,497,280.1,488,276.7z"/>
		<rect x="297.9" y="345.2" fill="#F4E8C1" width="209.4" height="32.1"/>
		<rect x="297.9" y="288.8" fill="#F4E8C1" width="209.4" height="32.1"/>
		<rect x="297.9" y="317" fill="#E2D5B0" width="209.4" height="32.1"/>
	</g>
</g>
<rect x="38.3" y="377.2" fill="#B7A97B" width="526.9" height="206.6"/>
<rect x="38.3" y="564.9" fill="#A0926A" width="526.9" height="18.9"/>
<g>
	<rect x="59.5" y="163.6" fill="#A0926A" width="21.4" height="213.6"/>
	<rect x="522.7" y="163.6" fill="#A0926A" width="21.4" height="213.6"/>
</g>
<g>
	<rect x="59.5" y="361.2" fill="#918159" width="21.4" height="16"/>
	<rect x="522.7" y="361.2" fill="#918159" width="21.4" height="16"/>
</g>
<g>
	<circle fill="#4B9B3B" cx="47.1" cy="168.2" r="36.7"/>
	<circle fill="#4B9B3B" cx="119.7" cy="168.2" r="36.7"/>
	<circle fill="#4B9B3B" cx="192.3" cy="168.2" r="36.7"/>
	<circle fill="#4B9B3B" cx="265" cy="168.2" r="36.7"/>
	<circle fill="#4B9B3B" cx="337.6" cy="168.2" r="36.7"/>
	<circle fill="#4B9B3B" cx="410.2" cy="168.2" r="36.7"/>
	<circle fill="#4B9B3B" cx="482.9" cy="168.2" r="36.7"/>
	<circle fill="#4B9B3B" cx="555.5" cy="168.2" r="36.7"/>
</g>
<polygon fill="#59A546" points="592.6,163.9 10.9,163.9 47.5,16.9 556,16.9 "/>
<g>
	<path fill="#C2DD50" d="M215.5,449.9c23.1-8.6,67.6-16.4,82.3,43.9c2.2,9.2-2.8,18.6-11.8,21.7c-23.3,7.9-67.5,14.2-81.8-44
		C201.9,462.4,206.7,453.2,215.5,449.9z"/>
	<g>
		<path fill="#4B9B3B" d="M358.2,442.9c0,0,21.9-19.7,41.6,0C399.7,442.9,378.4,463.1,358.2,442.9z"/>
		<path fill="#4B9B3B" d="M359.2,442.4c0,0-8.3-28.2,18-37.5C377.2,405,386.2,433,359.2,442.4z"/>
		<path fill="#C97E2D" d="M361.8,444.5L361.8,444.5c15.4,21.5,4.8,51.7-20.7,58.8l-62,17.2c-12.8,3.6-23.1-10.8-15.6-21.8l36.1-53.3
			C314.3,423.5,346.4,423.1,361.8,444.5z"/>
	</g>
</g>
<g>
	<g>
		<defs>
			<path id="SVGID_1_" d="M226.8,43.7c0,0-57.1,8.9-42.1,71.6C245.5,100,226.8,43.7,226.8,43.7"/>
		</defs>
		<clipPath id="SVGID_2_">
			<use xlink:href="#SVGID_1_"  overflow="visible"/>
		</clipPath>
		<g clip-path="url(#SVGID_2_)">
			<defs>
				<rect id="SVGID_3_" x="-92.4" y="-76.3" width="981.4" height="4965.4"/>
			</defs>
			<clipPath id="SVGID_4_">
				<use xlink:href="#SVGID_3_"  overflow="visible"/>
			</clipPath>
			<rect x="166.9" y="28.3" clip-path="url(#SVGID_4_)" fill="#6CAD6C" width="78" height="102.3"/>
		</g>
	</g>
	<g>
		<defs>
			<path id="SVGID_5_" d="M119.7,74.6c0,0-0.5,59.6,61.9,54.2C176.6,64.3,119.7,74.6,119.7,74.6"/>
		</defs>
		<clipPath id="SVGID_6_">
			<use xlink:href="#SVGID_5_"  overflow="visible"/>
		</clipPath>
		<g clip-path="url(#SVGID_6_)">
			<defs>
				<rect id="SVGID_7_" x="-92.4" y="-76.3" width="981.4" height="4965.4"/>
			</defs>
			<clipPath id="SVGID_8_">
				<use xlink:href="#SVGID_7_"  overflow="visible"/>
			</clipPath>
			<rect x="104.4" y="58.6" clip-path="url(#SVGID_8_)" fill="#6CAD6C" width="92.5" height="85.8"/>
		</g>
	</g>
	<g>
		<defs>
			<path id="SVGID_9_" d="M280.9,82.1c1.5,0,3.2,2.1,3.2,3.8c0,0.1,0,0.6-0.1,0.9c-3.1,10.9-8.4,16.4-13.4,20.8v16.2
				c0,9.8-4.9,13.3-9.5,13.3c-5.1,0-8.8-4.8-8.8-10.8c0-9.5,5.3-14.2,11.4-19.7V94.8c-2.2,3.7-5,6.5-9,6.5c-6.1,0-9.7-5.3-9.7-13.5
				c0-9.9,3.3-21.1,3.3-21.1c0.6-1.6,0-3.5,4.9-3.5c4.5,0,1.8,3.7,1.5,5.2c-1.6,6.9-2.7,11.1-2.7,18.9c0,5.1,1.6,7.8,4.2,7.8
				c3.7,0,6.4-6.1,7.5-12.7V67.4c0-1.8-0.4-2.3-0.4-3c0-0.9,1.1-1.6,2.4-1.6c3,0,4.9,1.9,4.9,4.1v32.9c3.3-3.7,6.2-8.4,8.1-14.9
				C279.2,82.9,280,82.1,280.9,82.1 M263.7,123.9v-10c-2.9,3.1-4.9,6.7-4.9,12.3c0,2.9,0.9,5.2,2.4,5.2
				C264,131.3,263.7,125.7,263.7,123.9"/>
		</defs>
		<clipPath id="SVGID_10_">
			<use xlink:href="#SVGID_9_"  overflow="visible"/>
		</clipPath>
		<g clip-path="url(#SVGID_10_)">
			<defs>
				<rect id="SVGID_11_" x="-92.4" y="-76.3" width="981.4" height="4965.4"/>
			</defs>
			<clipPath id="SVGID_12_">
				<use xlink:href="#SVGID_11_"  overflow="visible"/>
			</clipPath>
			<rect x="229.6" y="47.4" clip-path="url(#SVGID_12_)" fill="#FFFFFF" width="69.8" height="105.1"/>
		</g>
	</g>
	<g>
		<defs>
			<path id="SVGID_13_" d="M317.8,85.8c-1.1,5.1-4.9,9.3-11.1,9.3c-1.6,0-3.1-0.2-4.5-0.7c-2.3,4-5.8,6.7-11,6.7
				c-9.3,0-13.4-8.1-13.4-17.4c0-13.8,7.3-22.1,9.3-22.1c2.4,0,4.2,5,1.8,6.6c-1.5,2.2-4.2,5.7-4.2,15c0,7.9,3,11.8,6.6,11.8
				c2.6,0,4.2-1.4,5.4-3.6c-4.3-3.7-6.6-9.9-6.6-16.7c0-5.9,2.5-11,7.4-11c4.3,0,7.8,6.7,7.8,15.7c0,3.5-0.4,6.9-1.3,10.1
				c0.6,0.2,1.2,0.2,1.8,0.2c3.9,0,6-3.1,6.6-6.7C312.9,81,319,80.6,317.8,85.8 M298.6,85.4c0.2-1.5,0.3-2.9,0.3-4.3
				c0-6.4-0.3-11.1-2.2-11.1c-1,0-1.6,1.5-1.6,4.4C295.1,78.6,296.5,82.6,298.6,85.4"/>
		</defs>
		<clipPath id="SVGID_14_">
			<use xlink:href="#SVGID_13_"  overflow="visible"/>
		</clipPath>
		<g clip-path="url(#SVGID_14_)">
			<defs>
				<rect id="SVGID_15_" x="-92.4" y="-76.3" width="981.4" height="4965.4"/>
			</defs>
			<clipPath id="SVGID_16_">
				<use xlink:href="#SVGID_15_"  overflow="visible"/>
			</clipPath>
			<rect x="262.5" y="46.3" clip-path="url(#SVGID_16_)" fill="#FFFFFF" width="70.8" height="70.2"/>
		</g>
	</g>
	<g>
		<defs>
			<path id="SVGID_17_" d="M354.2,101.2c-4.9,0-7.7-4-7.7-8.8v-19c0-2.9-0.2-5.3-1.7-5.3c-2.5,0-7.7,8.1-8.2,15.5v13.7
				c0,1.8,0.1,4-2.6,4c-1.8,0-4.4-0.7-4.4-4.1V73.4c0-2.9-0.2-5.3-1.7-5.3c-2.5,0-7.7,8.1-8.2,15.5v13.7c0,1.8,0.1,4-2.6,4
				c-1.8,0-4.4-0.7-4.4-4.1V67.4c0-1.8-0.4-2.3-0.4-3c0-0.9,1.1-1.6,2.4-1.6c3,0,4.9,1.9,4.9,4.1v3.9c2.4-5.1,5.6-9,9.7-9
				c5.5,0,7.1,4.6,7.2,8.8c2.3-5,5.5-8.8,9.6-8.8c6,0,7.3,5.2,7.3,9.5v19.4c0,0.8,0,4.3,2.4,4.3c3.7,0,5.3-6,6.1-10.1
				c0.4-2,1.3-2.8,2.2-2.8c1.5,0,3.2,2.1,3.2,3.8c0,0.1,0,0.3-0.1,0.7C365.6,92.8,362.1,101.2,354.2,101.2"/>
		</defs>
		<clipPath id="SVGID_18_">
			<use xlink:href="#SVGID_17_"  overflow="visible"/>
		</clipPath>
		<g clip-path="url(#SVGID_18_)">
			<defs>
				<rect id="SVGID_19_" x="-92.4" y="-76.3" width="981.4" height="4965.4"/>
			</defs>
			<clipPath id="SVGID_20_">
				<use xlink:href="#SVGID_19_"  overflow="visible"/>
			</clipPath>
			<rect x="296.9" y="46.5" clip-path="url(#SVGID_20_)" fill="#FFFFFF" width="85.8" height="70"/>
		</g>
	</g>
	<g>
		<defs>
			<path id="SVGID_21_" d="M369.8,89.2c1.3,3.2,3.8,5.8,8.5,5.8c7.1,0,10.1-6.1,11.2-11.8c0.8-4.2,6-2.3,5.6,0.9
				c-0.6,5.7-4.3,17.1-17.8,17.1c-8.3,0-16.2-6.8-16.2-18.6c0-11.9,7-20.8,14-20.8c5.1,0,8.2,3.8,8.2,9.5
				C383.4,78.2,378.7,86.5,369.8,89.2 M368.7,84.1c4.6-2.2,7.5-7,7.5-12.7c0-2.1-0.7-3.3-1.9-3.3c-4.5,0-5.9,10.3-5.7,14.2
				C368.6,82.9,368.7,83.5,368.7,84.1"/>
		</defs>
		<clipPath id="SVGID_22_">
			<use xlink:href="#SVGID_21_"  overflow="visible"/>
		</clipPath>
		<g clip-path="url(#SVGID_22_)">
			<defs>
				<rect id="SVGID_23_" x="-92.4" y="-76.3" width="981.4" height="4965.4"/>
			</defs>
			<clipPath id="SVGID_24_">
				<use xlink:href="#SVGID_23_"  overflow="visible"/>
			</clipPath>
			<rect x="345.8" y="46.5" clip-path="url(#SVGID_24_)" fill="#FFFFFF" width="64.7" height="70"/>
		</g>
	</g>
	<g>
		<defs>
			<path id="SVGID_25_" d="M400.1,90.5c0-6,1.6-12.7,4.6-20.7h-7h-1c-0.1,3.7-0.6,11.8-2.3,17.2c-1.2,3.9-6,0.6-5.1-2.6
				c1-3.7,1.4-11.5,1.5-16.3c-2.3-1.3-3.9-3.3-3.9-6c0-2.6,2.2-4.3,4.6-4.3c2.2,0,4.8,1.1,5.8,5c3,0.4,3.9,0.4,4.9,0.4h4.8
				c1.1,0,4.8,3.1,4.4,5.2c0,1.1-4.1,12.2-4.1,21.6c0,2.6,1.2,5.1,3.7,5.1c4.2,0,5.8-6,6.6-10.1c0.4-2,1.3-2.8,2.2-2.8
				c1.5,0,3.2,2.1,3.2,3.8c0,0.3-0.1,0.5-0.1,0.7c-1.6,6.2-5.2,14.6-13.1,14.6C405.2,101.2,400.1,98.8,400.1,90.5"/>
		</defs>
		<clipPath id="SVGID_26_">
			<use xlink:href="#SVGID_25_"  overflow="visible"/>
		</clipPath>
		<g clip-path="url(#SVGID_26_)">
			<defs>
				<rect id="SVGID_27_" x="-92.4" y="-76.3" width="981.4" height="4965.4"/>
			</defs>
			<clipPath id="SVGID_28_">
				<use xlink:href="#SVGID_27_"  overflow="visible"/>
			</clipPath>
			<rect x="371.5" y="42.5" clip-path="url(#SVGID_28_)" fill="#FFFFFF" width="66.6" height="74.1"/>
		</g>
	</g>
	<g>
		<defs>
			<path id="SVGID_29_" d="M416.5,83.5c0-10.8,6.2-21.7,14.9-21.7c6.3,0,8.7,5.9,8.7,9.2c0,3.6-6.3,5.4-5.8,2.2
				c-0.5-1.6-0.6-5.1-3.8-5.1c-3.4,0-6.6,6.9-6.6,15.4c0,7.4,3.9,11.5,9.3,11.5c7.1,0,10.4-6.1,11.5-11.8c0.8-4.2,6-2.3,5.6,0.9
				c-0.6,5.7-4.7,17.1-18.1,17.1C424.2,101.2,416.5,95,416.5,83.5"/>
		</defs>
		<clipPath id="SVGID_30_">
			<use xlink:href="#SVGID_29_"  overflow="visible"/>
		</clipPath>
		<g clip-path="url(#SVGID_30_)">
			<defs>
				<rect id="SVGID_31_" x="-92.4" y="-76.3" width="981.4" height="4965.4"/>
			</defs>
			<clipPath id="SVGID_32_">
				<use xlink:href="#SVGID_31_"  overflow="visible"/>
			</clipPath>
			<rect x="401.1" y="46.5" clip-path="url(#SVGID_32_)" fill="#FFFFFF" width="64.7" height="70"/>
		</g>
	</g>
	<g>
		<defs>
			<path id="SVGID_33_" d="M483.6,85.8c-1.1,5.1-4.9,9.3-11.1,9.3c-1.6,0-3.1-0.2-4.5-0.7c-2.3,4-5.8,6.7-11,6.7
				c-9.3,0-13.4-8.1-13.4-17.4c0-13.8,7.3-22.1,9.3-22.1c2.4,0,4.2,5,1.8,6.6c-1.5,2.2-4.2,5.7-4.2,15c0,7.9,3,11.8,6.6,11.8
				c2.6,0,4.2-1.4,5.4-3.6c-4.3-3.7-6.6-9.9-6.6-16.7c0-5.9,2.5-11,7.4-11c4.3,0,7.8,6.7,7.8,15.7c0,3.5-0.4,6.9-1.3,10.1
				c0.6,0.2,1.2,0.2,1.8,0.2c3.9,0,6-3.1,6.6-6.7C478.8,81,484.8,80.6,483.6,85.8 M464.4,85.4c0.2-1.5,0.3-2.9,0.3-4.3
				c0-6.4-0.3-11.1-2.2-11.1c-1,0-1.6,1.5-1.6,4.4C460.9,78.6,462.3,82.6,464.4,85.4"/>
		</defs>
		<clipPath id="SVGID_34_">
			<use xlink:href="#SVGID_33_"  overflow="visible"/>
		</clipPath>
		<g clip-path="url(#SVGID_34_)">
			<defs>
				<rect id="SVGID_35_" x="-92.4" y="-76.3" width="981.4" height="4965.4"/>
			</defs>
			<clipPath id="SVGID_36_">
				<use xlink:href="#SVGID_35_"  overflow="visible"/>
			</clipPath>
			<rect x="428.4" y="46.3" clip-path="url(#SVGID_36_)" fill="#FFFFFF" width="70.8" height="70.2"/>
		</g>
	</g>
</g>
</svg>
